#!OML:ASF F:\VICON\USERDATA\INSTALL\Justin_Nancy\Justin_Nancy.ASF
:FULLY-SPECIFIED
:DEGREES
189
root 0.731227 17.1142 -15.6187 4.58872 -2.38411 7.73361
lowerback 6.2477 -1.50587 -7.89146
upperback 0.684344 -2.53489 0.363024
thorax -2.43669 -1.18668 5.01254
lowerneck -15.4523 -4.39267 -9.97066
upperneck 20.8787 -5.29368 7.23579
head 9.61697 -2.47391 3.49382
rclavicle -9.83984e-015 -9.54166e-015
rhumerus -30.0836 -10.2026 -80.998
rradius 34.9919
rwrist 4.94595
rhand -14.9375 12.7555
rfingers 7.12502
rthumb 11.225 -16.9241
lclavicle -9.83984e-015 -9.54166e-015
lhumerus -21.0685 0.92843 82.786
lradius 31.1654
lwrist -9.06465
lhand -11.3434 26.3416
lfingers 7.12502
lthumb 14.6897 55.8012
rfemur -33.5074 2.99671 11.8462
rtibia 11.9735
rfoot -5.71421 -6.89857
rtoes -8.86143
lfemur 8.04996 0.00516131 -31.6839
ltibia 17.7496
lfoot -16.8335 0.452194
ltoes -11.3394
190
root 0.716515 17.1073 -15.4334 4.54986 -2.32573 7.66734
lowerback 6.15423 -1.56154 -7.75018
upperback 0.793516 -2.58618 0.369539
thorax -2.2689 -1.22383 4.93675
lowerneck -15.7574 -4.47381 -9.89133
upperneck 20.9517 -5.4206 7.31371
head 9.71178 -2.51206 3.48863
rclavicle -2.42517e-014 -1.27222e-014
rhumerus -30.2215 -10.5189 -80.8475
rradius 34.8279
rwrist 4.79048
rhand -14.8609 12.8212
rfingers 7.12502
rthumb 11.2989 -16.8544
lclavicle -2.42517e-014 -1.27222e-014
lhumerus -21.0653 0.881171 82.8044
lradius 31.3314
lwrist -9.10625
lhand -11.1784 26.1021
lfingers 7.12502
lthumb 14.8486 55.5501
rfemur -33.391 2.80514 12.1041
rtibia 12.0651
rfoot -5.86818 -6.30105
rtoes -8.93065
lfemur 8.78125 -0.185074 -31.5545
ltibia 17.6825
lfoot -16.3668 0.252867
ltoes -11.806
191
root 0.700173 17.1002 -15.25 4.62274 -2.24579 7.7056
lowerback 6.1182 -1.61073 -7.71772
upperback 0.749428 -2.64884 0.345898
thorax -2.28847 -1.25326 4.89753
lowerneck -15.8801 -4.43828 -9.69066
upperneck 20.9651 -5.40752 7.29268
head 9.73104 -2.48983 3.44836
rclavicle 2.76311e-014 1.35174e-014
rhumerus -30.5475 -10.7966 -80.6535
rradius 34.6896
rwrist 4.66357
rhand -14.4688 12.8895
rfingers 7.12502
rthumb 11.6771 -16.7651
lclavicle 2.76311e-014 1.35174e-014
lhumerus -21.2207 0.834665 82.8173
lradius 31.4681
lwrist -9.12665
lhand -11.278 26.5932
lfingers 7.12502
lthumb 14.7527 56.0482
rfemur -33.5683 2.56499 12.2623
rtibia 12.6825
rfoot -5.87888 -5.7626
rtoes -8.29874
lfemur 9.32356 -0.261309 -31.4927
ltibia 17.6802
lfoot -15.8378 -0.130448
ltoes -12.8592
192
root 0.679327 17.0941 -15.0651 4.6083 -2.14781 7.64267
lowerback 6.18598 -1.66279 -7.65737
upperback 0.679214 -2.72153 0.396747
thorax -2.38976 -1.28361 4.92638
lowerneck -15.8062 -4.46759 -9.65231
upperneck 20.9108 -5.47362 7.33405
head 9.70435 -2.5143 3.44739
rclavicle 2.62396e-014 3.65764e-014
rhumerus -30.8532 -11.0389 -80.4226
rradius 34.3614
rwrist 4.65944
rhand -14.3162 12.6546
rfingers 7.12502
rthumb 11.8242 -16.9915
lclavicle 2.62396e-014 3.65764e-014
lhumerus -21.3538 0.887084 82.8599
lradius 31.4036
lwrist -9.34552
lhand -11.3695 26.9364
lfingers 7.12502
lthumb 14.6645 56.3978
rfemur -33.8819 2.37146 12.5505
rtibia 13.9064
rfoot -5.98765 -5.43909
rtoes -7.3112
lfemur 10.0303 -0.456983 -31.3345
ltibia 17.5942
lfoot -15.2825 -0.653964
ltoes -13.4371
193
root 0.655007 17.0923 -14.8771 4.5539 -1.94898 7.62236
lowerback 6.15867 -1.78112 -7.7043
upperback 0.692354 -2.87683 0.482831
thorax -2.3321 -1.36317 5.05152
lowerneck -15.6696 -4.49026 -9.77541
upperneck 20.7878 -5.51622 7.48288
head 9.64782 -2.53019 3.51454
rclavicle -2.127e-014 1.19271e-014
rhumerus -30.8555 -11.4904 -80.1076
rradius 33.608
rwrist 4.86455
rhand -14.4785 12.4229
rfingers 7.12502
rthumb 11.6677 -17.2322
lclavicle -2.127e-014 1.19271e-014
lhumerus -21.3866 1.14598 82.9321
lradius 31.2245
lwrist -9.48591
lhand -11.517 26.8582
lfingers 7.12502
lthumb 14.5224 56.3299
rfemur -34.1748 2.30831 12.7059
rtibia 15.4425
rfoot -5.97233 -5.49752
rtoes -7.76679
lfemur 10.7505 -0.784694 -31.2116
ltibia 17.4986
lfoot -14.6009 -1.10172
ltoes -13.7897
194
root 0.636258 17.0926 -14.6779 4.41529 -1.81995 7.72157
lowerback 6.0925 -1.86307 -7.76322
upperback 0.791815 -2.97997 0.477301
thorax -2.17379 -1.42376 5.07948
lowerneck -15.8341 -4.4813 -9.78035
upperneck 20.7439 -5.50526 7.57089
head 9.66466 -2.51226 3.54576
rclavicle -3.45885e-014 -2.8625e-014
rhumerus -30.8337 -12.0658 -79.8214
rradius 32.8591
rwrist 5.07698
rhand -14.2432 12.8107
rfingers 7.12502
rthumb 11.8946 -16.8315
lclavicle -3.45885e-014 -2.8625e-014
lhumerus -21.1353 1.19379 83.0106
lradius 30.7756
lwrist -9.48461
lhand -11.4424 26.9813
lfingers 7.12502
lthumb 14.5943 56.4478
rfemur -34.327 2.00854 12.8621
rtibia 17.1058
rfoot -5.53174 -5.32481
rtoes -10.0117
lfemur 11.5061 -1.12112 -31.3052
ltibia 17.4939
lfoot -13.8843 -1.2884
ltoes -13.8292
